# xmcd CD database file generated by Grip 3.2.0
# 
# Track frame offsets:
#       150
#       17452
#       27730
#       46100
#       62497
#       84105
#       106610
#       126502
#       140032
#       150757
#       168670
#       190500
#       204742
#       218890
#       230592
#       244572
#       263235
#       276985
#       291265
# 
# Disc length: 4007 seconds
# 
# Revision: 5
# Processed by: cddbd v1.5.2PL0 Copyright (c) Steve Scherf et al.
# Submitted via: Grip 3.2.0
# 
DISCID=080fa513
DTITLE=Various Artist - Ultimate Blues [CD2]
DYEAR=1994
DGENRE=Blues
TTITLE0=John Lee Hooker and Carlos Santana - The Healer
TTITLE1=J.J. Cale - Cajun Moon
TTITLE2=Buddy Guy - Trouble Man
TTITLE3=Fabulous Thunderbirds - Runnin' Shoes
TTITLE4=Paul Rodgers - Muddy Water Blues
TTITLE5=Albert Collins and Robert Cray - The Moon Is Full
TTITLE6=Little Milton - Stormy Monday
TTITLE7=Elmore James - Dust My Broom
TTITLE8=Little Walter - Just Your Fool
TTITLE9=John Mayall - Mail Order Mystics
TTITLE10=George Thorogood and The Destroyers - Bad To The Bone
TTITLE11=Lowell Fulson - Reconsider Baby
TTITLE12=Sonny Boy Williamson - Help Me
TTITLE13=Etta James - I'd Rather Go Blind
TTITLE14=A.C. Reed - These Blues Is Killing Me
TTITLE15=Jethro Tull - A New Day Yesterday
TTITLE16=Slim Harpo - I'm A King Bee
TTITLE17=Climax Blues Band - Couldn't Get It Right
TTITLE18=Jimmy Rodgers - If It Ain't Me (Who Are You Thinking Of)
EXTD=
EXTT0=John Lee Hooker and Carlos Santana
EXTT1=JJ Cale
EXTT2=Buddy Guy
EXTT3=Fabulous Thunderbirds
EXTT4=Paul Rodgers
EXTT5=Albert Collins and Robert Cray
EXTT6=Little Milton
EXTT7=Elmore James
EXTT8=Little Walter
EXTT9=John Mayall
EXTT10=George Thorogood and the Destroyers
EXTT11=Lowell Fulson
EXTT12=Sonny Boy Williamson
EXTT13=Etta James
EXTT14=A C Reed
EXTT15=Jethro Tull
EXTT16=Slim Harper
EXTT17=Climax Blues Band
EXTT18=Jimmy Rodgers
PLAYORDER=
